<?xml version="1.0" encoding="utf-8" ?>
<svg xmlns="http://www.w3.org/2000/svg" viewBox="0 0 200 60">
  <g fill="white" transform="translate(0, 2) scale(0.055)">
    <path d="M515.507 157.075C522.154 170.856 528.368 184.62 535.812 198.022C560.821 243.046 592.999 284.752 626.795 323.476Q660.733 362.441 697.479 398.771C747.607 449.043 807.018 503.036 808.622 579.684C808.993 597.408 806.642 614.826 800.732 631.591C789.642 663.048 766.877 690.322 736.589 704.78C703.906 720.381 663.835 724.179 629.465 711.961C605.979 703.613 576.038 683.968 565.248 660.8Q564.536 659.261 563.885 657.695C578.989 664.851 594.797 672.202 611.644 666.205C617.534 664.109 622.891 660.192 625.674 654.466C628.078 649.522 628.11 644.172 626.142 639.076C622.8 630.421 614.862 624.728 606.603 621.207C595.281 616.38 581.009 615.495 569.488 620.118C558.924 624.357 551.622 632.55 547.254 642.901C539.025 662.402 544.129 685.627 552.024 704.402C560.471 724.491 572.383 741.712 585.538 758.927C546.159 794.191 533.065 822.341 516.14 871.713C504.071 837.617 489.771 806.366 466.087 778.692C461.31 773.11 455.888 766.701 449.935 762.434L446.08 759.062C450.38 753.166 454.994 747.477 459.122 741.46C469.422 726.441 476.688 710.471 482.708 693.351C488.065 675.758 489.629 656.279 480.679 639.565Q480.202 638.66 479.68 637.78Q479.159 636.899 478.594 636.046Q478.03 635.193 477.424 634.369Q476.817 633.545 476.171 632.752Q475.524 631.959 474.839 631.199Q474.154 630.439 473.432 629.715Q472.71 628.99 471.953 628.302Q471.195 627.614 470.405 626.964Q469.614 626.315 468.793 625.705Q467.971 625.096 467.12 624.528Q466.269 623.96 465.39 623.436Q464.512 622.911 463.609 622.43Q462.706 621.95 461.78 621.515Q460.854 621.08 459.907 620.691Q458.961 620.303 457.996 619.962Q457.031 619.621 456.051 619.329C443.763 615.723 428.888 617.934 417.729 624.062C411.053 627.729 404.9 634.058 402.919 641.564Q402.794 642.049 402.694 642.54Q402.594 643.03 402.519 643.525Q402.444 644.02 402.394 644.518Q402.344 645.017 402.32 645.517Q402.295 646.017 402.296 646.518Q402.297 647.018 402.323 647.518Q402.349 648.018 402.4 648.517Q402.452 649.015 402.529 649.509Q402.605 650.004 402.707 650.494Q402.808 650.985 402.935 651.469Q403.061 651.954 403.212 652.431Q403.363 652.909 403.537 653.378Q403.712 653.847 403.91 654.307Q404.109 654.767 404.33 655.216Q404.552 655.665 404.795 656.102Q405.039 656.54 405.305 656.964C409.092 663.107 415.757 666.595 422.633 668.087C437.639 671.342 453.855 665.447 466.704 657.954C454.574 683.826 430.326 702.903 403.811 712.572C371.218 724.457 329.996 720.753 298.839 706.049C267.796 691.398 244.712 666.649 233.013 634.16C219.121 595.581 224.369 550.895 241.788 514.305C263.287 469.147 300.943 435.387 335.65 400.521C394.007 341.897 459.657 274.251 497.726 200.52C504.897 186.632 511.548 172.241 515.507 157.075Z"/>
    <path d="M482.708 693.351C483.046 695.79 482.105 697.905 482.036 700.341L482.656 697.682C481.915 702.061 480.09 706.1 478.763 710.316C477.584 714.064 476.824 718.008 475.34 721.65C469.373 736.296 458.355 747.883 450.695 761.43C450.32 762.093 450.493 761.835 449.935 762.434L446.08 759.062C450.38 753.166 454.994 747.477 459.122 741.46C469.422 726.441 476.688 710.471 482.708 693.351Z"/>
    <path d="M468.676 439.405C486.015 391.464 503.496 342.527 511.012 291.931C513.154 277.514 513.844 263.329 514.833 248.832C516.306 256.462 516.467 264.044 517.242 271.74Q519.04 288.586 521.994 305.268C528.364 340.17 540.589 373.502 552.661 406.742C556.64 417.699 560.023 429.479 564.727 440.117C570.422 453.328 574.519 466.893 579.732 480.247L581.744 486.027C586.148 498.774 590.059 511.797 594.733 524.435C567.891 563.57 543.272 603.895 531.571 650.297C533.718 664.94 534.525 693.28 531.496 707.442C530.521 712.003 527.487 715.779 526.52 720.24C525.481 725.031 525.578 730.718 523.66 735.231C521.906 735.115 522.406 733.622 520.703 734.639C518.024 739.675 519.401 745.463 518.084 750.776Q518.003 762.378 517.471 773.967C517.441 774.119 517.408 774.271 517.379 774.424C516.849 777.251 517.532 784.154 515.659 785.944C513.279 783.353 514.402 777.569 513.502 774.222C513.145 764.365 512.524 754.513 512.446 744.649C511.471 737.686 509.262 728.943 505.717 722.856L505.178 722.746Q504.446 724.546 503.671 726.328L503.326 726.202C502.842 725.119 502.886 725.591 502.951 724.605C503.287 719.532 499.761 713.753 498.392 708.766C492.523 687.382 491.451 663.965 497.107 642.422C490.678 624.082 483.733 605.926 474.75 588.661C463.701 567.425 450.067 547.479 437.329 527.231C441.874 512.749 447.242 498.521 452.18 484.167C457.823 469.434 462.086 453.702 468.676 439.405Z"/>
    <path d="M452.18 484.167C453.488 483.121 454.185 482.534 455.966 482.598C462.886 482.844 480.578 498.106 485.018 503.623C490.054 509.881 488.161 516.939 490.449 520.962C491.865 520.697 491.935 520.63 493.209 521.271C493.556 522.084 493.718 522.457 493.739 523.359C492.767 537.882 495.717 544.947 503.51 557.042C505.843 560.662 508.067 564.486 510.622 567.946C511.735 566.453 512.458 565.045 514.183 564.253C515.54 564.461 516.43 564.87 517.642 565.472C518.039 566.892 518.44 568.276 518.978 569.653L519.695 569.578C521.044 567.095 522.255 564.499 523.728 562.091C528.263 554.68 534.604 547.39 536.324 538.638C537.165 534.36 536.791 529.751 537.189 525.394L537.703 525.101C538.191 526.729 538.664 527.973 539.702 529.336C539.788 529.45 539.878 529.56 539.966 529.673C542.233 512.478 540.807 511.258 554.634 499.436C563.411 494.605 570.952 485.537 581.744 486.027C586.148 498.774 590.059 511.797 594.733 524.435C567.891 563.57 543.272 603.895 531.571 650.297C533.718 664.94 534.525 693.28 531.496 707.442C530.521 712.003 527.487 715.779 526.52 720.24C525.481 725.031 525.578 730.718 523.66 735.231C521.906 735.115 522.406 733.622 520.703 734.639C518.024 739.675 519.401 745.463 518.084 750.776Q518.003 762.378 517.471 773.967C517.441 774.119 517.408 774.271 517.379 774.424C516.849 777.251 517.532 784.154 515.659 785.944C513.279 783.353 514.402 777.569 513.502 774.222C513.145 764.365 512.524 754.513 512.446 744.649C511.471 737.686 509.262 728.943 505.717 722.856L505.178 722.746Q504.446 724.546 503.671 726.328L503.326 726.202C502.842 725.119 502.886 725.591 502.951 724.605C503.287 719.532 499.761 713.753 498.392 708.766C492.523 687.382 491.451 663.965 497.107 642.422C490.678 624.082 483.733 605.926 474.75 588.661C463.701 567.425 450.067 547.479 437.329 527.231C441.874 512.749 447.242 498.521 452.18 484.167Z"/>
    <path d="M452.18 484.167C453.488 483.121 454.185 482.534 455.966 482.598C462.886 482.844 480.578 498.106 485.018 503.623C490.054 509.881 488.161 516.939 490.449 520.962C490.44 521.277 490.437 521.593 490.423 521.908C490.145 528.046 487.346 532.516 488.507 539.06C490.658 551.184 499.27 561.577 504.382 572.62C509.674 584.048 512.515 611.471 510.926 623.857C510.008 631.013 507.492 637.858 505.567 644.781C504.365 649.1 503.653 654.142 501.673 658.159Q499.621 650.224 497.107 642.422C490.678 624.082 483.733 605.926 474.75 588.661C463.701 567.425 450.067 547.479 437.329 527.231C441.874 512.749 447.242 498.521 452.18 484.167Z"/>
    <path d="M490.449 520.962C491.865 520.697 491.935 520.63 493.209 521.271C493.556 522.084 493.718 522.457 493.739 523.359C492.767 537.882 495.717 544.947 503.51 557.042C505.843 560.662 508.067 564.486 510.622 567.946C511.735 566.453 512.458 565.045 514.183 564.253C515.54 564.461 516.43 564.87 517.642 565.472C518.039 566.892 518.44 568.276 518.978 569.653L519.695 569.578C521.044 567.095 522.255 564.499 523.728 562.091C528.263 554.68 534.604 547.39 536.324 538.638C537.165 534.36 536.791 529.751 537.189 525.394L537.703 525.101C538.191 526.729 538.664 527.973 539.702 529.336C539.788 529.45 539.878 529.56 539.966 529.673C540.263 532.83 540.858 536.319 540.38 539.472C538.938 548.979 532.411 556.62 527.984 564.873C524.931 570.564 522.439 577.37 520.884 583.626C518.461 593.367 515.911 614.989 517.037 624.826C517.981 633.077 520.266 640.282 520.14 648.791C518.634 647.161 516.786 644.612 514.403 644.439C513.098 644.344 511.943 644.957 511.071 645.882C506.283 650.96 505.893 665.149 505.813 671.795C505.372 668.936 503.983 666.101 503.209 663.272L501.673 658.159C503.653 654.142 504.365 649.1 505.567 644.781C507.492 637.858 510.008 631.013 510.926 623.857C512.515 611.471 509.674 584.048 504.382 572.62C499.27 561.577 490.658 551.184 488.507 539.06C487.346 532.516 490.145 528.046 490.423 521.908C490.437 521.593 490.44 521.277 490.449 520.962Z"/>
    <path d="M505.813 671.795C505.893 665.149 506.283 650.96 511.071 645.882C511.943 644.957 513.098 644.344 514.403 644.439C516.786 644.612 518.634 647.161 520.14 648.791C524.287 668.227 522.9 691.444 518.072 710.746C516.315 711.973 514.617 713.153 512.703 714.132C508.601 700.285 508.657 685.818 505.813 671.795Z"/>
    <path d="M497.107 642.422Q499.621 650.224 501.673 658.159L503.209 663.272C501.765 675.94 501.364 689.261 505.513 701.5C507.481 707.304 510.065 712.993 511.26 719.025C512.917 727.391 512.637 736.164 512.446 744.649C511.471 737.686 509.262 728.943 505.717 722.856L505.178 722.746Q504.446 724.546 503.671 726.328L503.326 726.202C502.842 725.119 502.886 725.591 502.951 724.605C503.287 719.532 499.761 713.753 498.392 708.766C492.523 687.382 491.451 663.965 497.107 642.422Z"/>
    <path d="M518.084 750.776C517.684 740.598 517.708 729.275 519.784 719.308C521.91 709.098 525.539 698.865 526.983 688.565C527.734 683.217 527.399 677.873 527.45 672.493C527.522 664.936 529.085 657.417 531.571 650.297C533.718 664.94 534.525 693.28 531.496 707.442C530.521 712.003 527.487 715.779 526.52 720.24C525.481 725.031 525.578 730.718 523.66 735.231C521.906 735.115 522.406 733.622 520.703 734.639C518.024 739.675 519.401 745.463 518.084 750.776Z"/>
    <path d="M564.727 440.117C570.422 453.328 574.519 466.893 579.732 480.247L581.744 486.027C570.952 485.537 563.411 494.605 554.634 499.436C540.807 511.258 542.233 512.478 539.966 529.673C539.878 529.56 539.788 529.45 539.702 529.336C538.664 527.973 538.191 526.729 537.703 525.101L537.189 525.394C536.791 529.751 537.165 534.36 536.324 538.638C534.604 547.39 528.263 554.68 523.728 562.091C522.255 564.499 521.044 567.095 519.695 569.578L518.978 569.653C518.44 568.276 518.039 566.892 517.642 565.472C519.302 564.21 520.65 562.701 521.988 561.114C530.446 551.09 535.649 540.176 534.417 526.869C534.158 524.071 532.914 510.464 530.495 509.69C527.733 508.807 527.677 510.507 524.655 508.021C525.636 503.14 523.554 498.218 524.95 492.749C528.894 477.3 541.683 461.939 553.23 451.216C557.083 447.639 562.192 444.829 564.727 440.117Z"/>
    <path d="M579.732 480.247L581.744 486.027C570.952 485.537 563.411 494.605 554.634 499.436C559.642 486.65 574.154 488.317 579.732 480.247Z"/>
    <path d="M468.676 439.405C468.713 439.685 468.757 439.964 468.788 440.244C468.957 441.76 467.56 445.253 468.658 446.193C471.913 448.979 475.992 450.685 479.23 453.454C491.395 463.861 503.896 480.662 505.361 497.109C505.544 499.17 505.559 501.249 505.141 503.285C504.993 503.472 504.839 503.654 504.697 503.845C504.088 504.663 503.856 505.538 503.539 506.493C502.631 509.234 501.766 510.503 499.273 511.919C498.494 512.361 497.724 512.816 496.941 513.252C495.328 516.516 494.499 519.814 493.739 523.359C493.718 522.457 493.556 522.084 493.209 521.271C491.935 520.63 491.865 520.697 490.449 520.962C488.161 516.939 490.054 509.881 485.018 503.623C480.578 498.106 462.886 482.844 455.966 482.598C454.185 482.534 453.488 483.121 452.18 484.167C457.823 469.434 462.086 453.702 468.676 439.405Z"/>
    <path d="M496.941 513.252C497.724 512.816 498.494 512.361 499.273 511.919C501.766 510.503 502.631 509.234 503.539 506.493C503.856 505.538 504.088 504.663 504.697 503.845C504.839 503.654 504.993 503.472 505.141 503.285C504.846 506.336 504.832 509.577 504.098 512.544C502.966 517.124 500.638 521.29 499.172 525.762C495.659 536.478 501.006 547.33 507.809 555.507C509.817 557.92 511.763 559.533 514.527 561.05C522.289 556.715 528.02 549.82 530.511 541.218C535.306 524.653 523.588 512.846 524.655 508.021C527.677 510.507 527.733 508.807 530.495 509.69C532.914 510.464 534.158 524.071 534.417 526.869C535.649 540.176 530.446 551.09 521.988 561.114C520.65 562.701 519.302 564.21 517.642 565.472C516.43 564.87 515.54 564.461 514.183 564.253C512.458 565.045 511.735 566.453 510.622 567.946C508.067 564.486 505.843 560.662 503.51 557.042C495.717 544.947 492.767 537.882 493.739 523.359C494.499 519.814 495.328 516.516 496.941 513.252Z"/>
    <path d="M512.466 514.014C513.309 513.995 514.16 513.981 515.001 514.063C518.966 514.453 523.068 517.624 525.332 520.761C528.674 525.392 530.206 531.783 529.185 537.413C527.886 544.573 523.263 549.699 517.599 553.816C516.736 554.06 515.868 554.337 514.96 554.313C511.976 554.234 508.857 552.008 506.994 549.821C503.076 545.222 500.77 538.258 501.326 532.231C502.043 524.464 506.646 518.726 512.466 514.014Z"/>
    <path d="M652.292 682.878C655.583 680.732 658.444 677.917 661.714 675.7C663.538 674.463 668.19 672.473 669.381 671.013C669.552 670.803 669.592 670.515 669.697 670.265L666.883 669.276L666.909 668.483C671.519 664.64 692.052 659.867 698.852 657.795C704.436 656.094 709.764 653.526 715.243 651.51C720.785 649.471 726.629 647.927 732.035 645.566C738.693 642.657 742.096 639.341 749.712 637.778C747.77 640.778 744.652 643.739 743.414 647.076C743.251 649.132 742.882 650.184 744.173 651.921C742.608 653.366 741.074 654.888 739.453 656.269C739.325 657.523 739.033 658.763 739.609 659.935C743.447 656.467 746.815 652.382 750.273 648.537C752.636 644.704 755.78 641.133 758.532 637.558L758.244 639.895C759.122 640.439 759.775 640.642 760.755 640.928C761.673 642.389 761.685 643.359 761.32 645.044C757.579 662.367 740.392 675.04 726.197 683.682C716.417 689.636 699.841 698.971 688.564 699.606C684.483 699.836 680.365 697.803 676.336 698.127C670.899 698.565 664.909 700.975 659.47 699.695C658.621 699.496 657.733 699.307 657.206 698.553C654.764 695.053 653.965 689.24 649.615 687.308C638.728 687.704 621.735 687.07 611.936 682.462C620.259 683.739 628.538 684.486 636.929 685.184C642.347 684.022 646.656 683.125 652.292 682.878Z"/>
    <path d="M652.292 682.878C655.583 680.732 658.444 677.917 661.714 675.7C663.538 674.463 668.19 672.473 669.381 671.013C669.552 670.803 669.592 670.515 669.697 670.265L666.883 669.276L666.909 668.483C671.519 664.64 692.052 659.867 698.852 657.795C704.436 656.094 709.764 653.526 715.243 651.51C720.785 649.471 726.629 647.927 732.035 645.566C738.693 642.657 742.096 639.341 749.712 637.778C747.77 640.778 744.652 643.739 743.414 647.076C744.652 643.739 747.77 640.778 749.712 637.778L751.853 635.302C753.95 630.657 757.283 626.238 759.591 621.6C767.339 606.031 768.765 592.464 769.845 575.496C769.923 574.272 769.748 573.295 770.709 572.456C772.934 576.804 770.07 595.217 768.821 600.587L769.626 601.012L769.864 600.271C770.304 598.93 770.717 597.521 771.873 596.632C772.291 597.953 772.084 598.443 771.737 599.754C771.322 601.323 771.03 602.947 770.732 604.542C771.248 605.161 770.947 605.041 771.51 605.123C769.446 612.682 766.35 623.345 761.333 629.51C759.21 633.359 756.987 637.418 754.084 640.743C753.525 640.284 752.811 639.774 752.37 639.204C751.769 638.426 751.852 637.929 751.949 636.98C751.981 636.671 752.082 636.367 752.064 636.057C752.049 635.796 751.924 635.554 751.853 635.302Z"/>
    <path d="M768.821 600.587L769.626 601.012L769.864 600.271C770.304 598.93 770.717 597.521 771.873 596.632C772.291 597.953 772.084 598.443 771.737 599.754C771.322 601.323 771.03 602.947 770.732 604.542C771.248 605.161 770.947 605.041 771.51 605.123C769.446 612.682 766.35 623.345 761.333 629.51C759.381 630.308 758.489 632.351 757.63 634.185C757.558 634.34 757.497 634.499 757.431 634.656L755.864 633.845C757.029 628.692 760.819 623.224 762.995 618.312C765.524 612.607 767.167 606.587 768.821 600.587Z"/>
    <path d="M751.853 635.302C751.924 635.554 752.049 635.796 752.064 636.057C752.082 636.367 751.981 636.671 751.949 636.98C751.852 637.929 751.769 638.426 752.37 639.204C752.811 639.774 753.525 640.284 754.084 640.743C750.991 644.593 747.92 648.681 744.173 651.921C742.882 650.184 743.251 649.132 743.414 647.076C744.652 643.739 747.77 640.778 749.712 637.778L751.853 635.302Z"/>
    <path d="M517.471 773.967Q517.391 783.172 517.579 792.375C519.263 804.102 517.253 817.813 515.601 829.51C514.213 823.093 513.363 816.138 513.465 809.563C512.654 797.812 513.316 785.984 513.502 774.222C514.402 777.569 513.279 783.353 515.659 785.944C517.532 784.154 516.849 777.251 517.379 774.424C517.408 774.271 517.441 774.119 517.471 773.967Z"/>
    <path d="M517.579 792.375C519.263 804.102 517.253 817.813 515.601 829.51C514.213 823.093 513.363 816.138 513.465 809.563C514.06 810.905 514.025 811.495 515.405 812.096C517.589 809.909 517.451 796.138 517.579 792.375Z"/>
  </g>
  <text x="58" y="40" font-family="Inter, -apple-system, BlinkMacSystemFont, 'Segoe UI', Roboto, sans-serif" font-size="28" font-weight="700" fill="white" letter-spacing="-0.5">AceBot</text>
</svg>